<svg width="24" height="23" viewBox="0 0 24 23" fill="none" xmlns="http://www.w3.org/2000/svg">
<path d="M23.8214 0.234932C23.6138 0.00243348 23.2861 -0.0599098 23.0147 0.058683L0.42111 9.94923C0.170799 10.0589 0.00626892 10.3041 0.000175217 10.5778C-0.00591849 10.8511 0.147362 11.1033 0.392985 11.2242L5.78779 13.8773L7.13216 21.9426C7.17575 22.2487 7.41622 22.4948 7.72934 22.5393C7.95434 22.5716 8.17793 22.4924 8.33262 22.333L12.5916 18.074L18.6694 22.4155C18.8644 22.5543 19.1157 22.5848 19.3369 22.4971C19.5586 22.4094 19.7208 22.2149 19.7677 21.981L23.9864 0.840552C24.0281 0.631022 23.9742 0.406493 23.8214 0.234932ZM6.34466 12.5841L2.37203 10.6303L18.0666 3.7599L6.34466 12.5841ZM8.54496 14.6742L7.89106 17.9437L7.18559 13.7109L15.8091 7.21925L8.73667 14.3156C8.6373 14.415 8.57121 14.5443 8.54496 14.6742ZM8.97292 19.7038L9.71073 16.0162L11.4315 17.2453L8.97292 19.7038ZM18.6014 20.6385L10.3173 14.7215L22.1517 2.84772L18.6014 20.6385Z" fill="#2F588D"/>
</svg>
