<svg width="21" height="21" viewBox="0 0 21 21" fill="none" xmlns="http://www.w3.org/2000/svg">
<path d="M14.744 0H6.25601C2.80643 0 0 2.80643 0 6.25601V14.744C0 18.1936 2.80643 21 6.25601 21H14.744C18.1936 21 21 18.1936 21 14.744V6.25601C21 2.80643 18.1935 0 14.744 0ZM18.8874 14.744C18.8874 17.0323 17.0323 18.8874 14.744 18.8874H6.25601C3.96769 18.8874 2.1126 17.0323 2.1126 14.744V6.25601C2.1126 3.96765 3.96769 2.1126 6.25601 2.1126H14.744C17.0323 2.1126 18.8874 3.96765 18.8874 6.25601V14.744Z" fill="url(#paint0_linear)"/>
<path d="M10.5 5.0686C7.5051 5.0686 5.0686 7.5051 5.0686 10.4999C5.0686 13.4947 7.5051 15.9313 10.5 15.9313C13.4948 15.9313 15.9313 13.4948 15.9313 10.4999C15.9313 7.50506 13.4948 5.0686 10.5 5.0686ZM10.5 13.8187C8.66704 13.8187 7.1812 12.3329 7.1812 10.5C7.1812 8.66704 8.66708 7.1812 10.5 7.1812C12.3329 7.1812 13.8187 8.66704 13.8187 10.5C13.8187 12.3328 12.3328 13.8187 10.5 13.8187Z" fill="url(#paint1_linear)"/>
<path d="M15.9418 6.41095C16.6606 6.41095 17.2432 5.82828 17.2432 5.10953C17.2432 4.39077 16.6606 3.80811 15.9418 3.80811C15.223 3.80811 14.6404 4.39077 14.6404 5.10953C14.6404 5.82828 15.223 6.41095 15.9418 6.41095Z" fill="url(#paint2_linear)"/>
<defs>
<linearGradient id="paint0_linear" x1="10.5" y1="20.9388" x2="10.5" y2="0.163103" gradientUnits="userSpaceOnUse">
<stop stop-color="#E09B3D"/>
<stop offset="0.3" stop-color="#C74C4D"/>
<stop offset="0.6" stop-color="#C21975"/>
<stop offset="1" stop-color="#7024C4"/>
</linearGradient>
<linearGradient id="paint1_linear" x1="10.5" y1="20.9388" x2="10.5" y2="0.163055" gradientUnits="userSpaceOnUse">
<stop stop-color="#E09B3D"/>
<stop offset="0.3" stop-color="#C74C4D"/>
<stop offset="0.6" stop-color="#C21975"/>
<stop offset="1" stop-color="#7024C4"/>
</linearGradient>
<linearGradient id="paint2_linear" x1="15.9418" y1="20.9388" x2="15.9418" y2="0.163132" gradientUnits="userSpaceOnUse">
<stop stop-color="#E09B3D"/>
<stop offset="0.3" stop-color="#C74C4D"/>
<stop offset="0.6" stop-color="#C21975"/>
<stop offset="1" stop-color="#7024C4"/>
</linearGradient>
</defs>
</svg>
